<svg preserveAspectRatio="none" width="24" height="24" viewBox="0 0 24 24" fill="none" xmlns="http://www.w3.org/2000/svg">
<path d="M18 11.1429V8.57143C18 6.98013 17.3679 5.45401 16.2426 4.32879C15.1174 3.20357 13.5913 2.57143 12 2.57143C10.4087 2.57143 8.88258 3.20357 7.75736 4.32879C6.63214 5.45401 6 6.98013 6 8.57143V11.1429C6 13.9714 3.42857 14.6571 3.42857 16.2857C3.42857 17.7429 6.77143 18.8571 12 18.8571C17.2286 18.8571 20.5714 17.7429 20.5714 16.2857C20.5714 14.6571 18 13.9714 18 11.1429Z" stroke="#565D6D" stroke-width="2.05714" stroke-miterlimit="10" stroke-linecap="square"/>
<path d="M12 20.5714C11.1334 20.5714 10.3191 20.5423 9.55286 20.4857C9.71622 21.0068 10.0417 21.4622 10.4818 21.7855C10.922 22.1088 11.4539 22.2831 12 22.2831C12.5461 22.2831 13.078 22.1088 13.5182 21.7855C13.9583 21.4622 14.2838 21.0068 14.4471 20.4857C13.6809 20.5423 12.8666 20.5714 12 20.5714Z" fill="#565D6D"/>
</svg>
