<svg preserveAspectRatio="none" width="20" height="20" viewBox="0 0 20 20" fill="none" xmlns="http://www.w3.org/2000/svg">
<path d="M14.5 2.5L5.5 2.5L5.5 5.5L14.5 5.5V2.5Z" stroke="white" stroke-linecap="round" stroke-linejoin="round"/>
<path d="M8 7.5L8 11L4.589 15.031C4.4042 15.2494 4.2857 15.516 4.24746 15.7995C4.20923 16.083 4.25286 16.3715 4.37321 16.6311C4.49357 16.8906 4.68562 17.1103 4.92672 17.2642C5.16783 17.4182 5.44793 17.5 5.734 17.5H14.266C14.5521 17.5 14.8322 17.4182 15.0733 17.2642C15.3144 17.1103 15.5064 16.8906 15.6268 16.6311C15.7471 16.3715 15.7908 16.083 15.7525 15.7995C15.7143 15.516 15.5958 15.2494 15.411 15.031L12 11V7.5" stroke="white" stroke-linecap="round" stroke-linejoin="round"/>
</svg>
