<svg preserveAspectRatio="none" width="20" height="20" viewBox="0 0 20 20" fill="none" xmlns="http://www.w3.org/2000/svg">
<path d="M10 12.5C11.933 12.5 13.5 10.933 13.5 9C13.5 7.067 11.933 5.5 10 5.5C8.067 5.5 6.5 7.067 6.5 9C6.5 10.933 8.067 12.5 10 12.5Z" stroke="white" stroke-linecap="round" stroke-linejoin="round"/>
<path d="M8.5 12.162C8.48783 12.566 8.34973 12.9561 8.10499 13.2777C7.86025 13.5994 7.52112 13.8365 7.135 13.956L4.868 15.044C4.77232 15.0842 4.68002 15.132 4.592 15.187" stroke="white" stroke-linecap="round" stroke-linejoin="round"/>
<path d="M15.408 15.188C15.32 15.133 15.2277 15.0852 15.132 15.045L12.867 13.957C12.035 13.519 11.502 13.024 11.502 12.163" stroke="white" stroke-linecap="round" stroke-linejoin="round"/>
<path d="M10 17.5C14.1421 17.5 17.5 14.1421 17.5 10C17.5 5.85786 14.1421 2.5 10 2.5C5.85786 2.5 2.5 5.85786 2.5 10C2.5 14.1421 5.85786 17.5 10 17.5Z" stroke="white" stroke-linecap="round" stroke-linejoin="round"/>
</svg>
