<svg preserveAspectRatio="none" width="25" height="25" viewBox="0 0 25 25" fill="none" xmlns="http://www.w3.org/2000/svg">
<path d="M12.93 8.09C14.03 8.09 14.93 7.19 14.93 6.09C14.93 4.99 14.03 4.09 12.93 4.09C11.83 4.09 10.93 4.99 10.93 6.09C10.93 7.19 11.83 8.09 12.93 8.09ZM12.93 10.09C11.83 10.09 10.93 10.99 10.93 12.09C10.93 13.19 11.83 14.09 12.93 14.09C14.03 14.09 14.93 13.19 14.93 12.09C14.93 10.99 14.03 10.09 12.93 10.09ZM12.93 16.09C11.83 16.09 10.93 16.99 10.93 18.09C10.93 19.19 11.83 20.09 12.93 20.09C14.03 20.09 14.93 19.19 14.93 18.09C14.93 16.99 14.03 16.09 12.93 16.09Z" fill="#9095A1"/>
</svg>
