<svg preserveAspectRatio="none" width="16" height="16" viewBox="0 0 16 16" fill="none" xmlns="http://www.w3.org/2000/svg">
<path d="M14.4125 3.09562C14.3355 2.91782 14.208 2.76656 14.0458 2.66066C13.8835 2.55476 13.6937 2.49889 13.5 2.5L2.5 2.5C2.30646 2.50038 2.11718 2.55692 1.95514 2.66275C1.7931 2.76859 1.66525 2.91917 1.58711 3.09624C1.50896 3.27331 1.48388 3.46924 1.5149 3.66029C1.54592 3.85133 1.63172 4.02926 1.76188 4.1725L1.76688 4.17812L6 8.69812L6 13.5C5.99996 13.681 6.04903 13.8586 6.142 14.0139C6.23496 14.1692 6.36832 14.2963 6.52787 14.3818C6.68741 14.4672 6.86716 14.5078 7.04793 14.4991C7.22871 14.4904 7.40375 14.4328 7.55438 14.3325L9.55438 12.9987C9.69148 12.9074 9.8039 12.7836 9.88164 12.6384C9.95938 12.4932 10 12.331 10 12.1663V8.69812L14.2338 4.17812L14.2388 4.1725C14.3703 4.02991 14.4569 3.85174 14.4878 3.66023C14.5187 3.46872 14.4925 3.27234 14.4125 3.09562ZM9.27125 8.0175C9.09755 8.20161 9.00055 8.44501 9 8.69812L9 12.1663L7 13.5L7 8.69812C7.00058 8.4441 6.90398 8.19947 6.73 8.01437L2.5 3.5L13.5 3.5L9.27125 8.0175Z" fill="#565D6D"/>
</svg>
