<svg preserveAspectRatio="none" width="106" height="36" viewBox="0 0 106 36" fill="none" xmlns="http://www.w3.org/2000/svg">
<g clip-path="url(#clip0_2_4808)">
<path d="M47.2762 22.7836H53.2824C53.2824 24.7388 51.6978 26.3239 49.7431 26.3239H42.6912V12.0819C42.6912 9.54893 44.744 7.49553 47.2762 7.49553V22.7836Z" fill="#171A1F"/>
<path d="M61.6719 26.5373C60.2062 26.5373 58.8833 26.2244 57.7035 25.5986C56.5417 24.9727 55.6211 24.0787 54.9418 22.9165C54.2804 21.7542 53.9498 20.3953 53.9498 18.8397C53.9498 17.3019 54.2894 15.9519 54.9686 14.7896C55.6479 13.6095 56.5774 12.7065 57.7572 12.0807C58.937 11.4549 60.2598 11.142 61.7256 11.142C63.1914 11.142 64.5141 11.4549 65.6939 12.0807C66.8737 12.7065 67.8031 13.6095 68.4822 14.7896C69.162 15.9519 69.5012 17.3019 69.5012 18.8397C69.5012 20.3774 69.1531 21.7363 68.4557 22.9165C67.7765 24.0787 66.8379 24.9727 65.6403 25.5986C64.4605 26.2244 63.1377 26.5373 61.6719 26.5373ZM61.6719 22.5678C62.5478 22.5678 63.2897 22.2459 63.8974 21.6022C64.5231 20.9585 64.8359 20.0377 64.8359 18.8397C64.8359 17.6416 64.532 16.7208 63.9243 16.0771C63.3343 15.4333 62.6014 15.1115 61.7256 15.1115C60.8318 15.1115 60.09 15.4333 59.5 16.0771C58.9102 16.7029 58.6152 17.6238 58.6152 18.8397C58.6152 20.0377 58.9012 20.9585 59.4733 21.6022C60.0631 22.2459 60.796 22.5678 61.6719 22.5678Z" fill="#171A1F"/>
<path d="M77.62 11.1384C78.675 11.1384 79.5955 11.3529 80.382 11.7821C81.1862 12.2112 81.8028 12.7745 82.2317 13.4718C82.2317 12.3016 83.18 11.3529 84.35 11.3529H86.817V26.2923C86.817 27.6691 86.5396 28.9118 85.9856 30.0204C85.4492 31.1469 84.6185 32.041 83.4921 32.7026C82.384 33.3641 80.9986 33.6949 79.3365 33.6949C77.1196 33.6949 75.3229 33.1675 73.947 32.1125C72.5704 31.0754 71.7839 29.6628 71.5874 27.8748H76.1183C76.2617 28.4469 76.6009 28.8939 77.1373 29.2158C77.6737 29.5555 78.3351 29.7254 79.1216 29.7254C80.0693 29.7254 80.8198 29.4483 81.3738 28.8939C81.9462 28.3576 82.2317 27.4904 82.2317 26.2923V24.1734C81.7851 24.8708 81.1685 25.443 80.382 25.89C79.5955 26.3191 78.675 26.5337 77.62 26.5337C76.3868 26.5337 75.2692 26.2208 74.2686 25.595C73.2672 24.9512 72.4718 24.0483 71.8818 22.886C71.3101 21.7059 71.0239 20.347 71.0239 18.8092C71.0239 17.2714 71.3101 15.9215 71.8818 14.7593C72.4718 13.597 73.2672 12.7029 74.2686 12.0771C75.2692 11.4513 76.3868 11.1384 77.62 11.1384ZM82.2317 18.8361C82.2317 17.6917 81.9102 16.7887 81.2664 16.1271C80.641 15.4655 79.8721 15.1348 78.9605 15.1348C78.0489 15.1348 77.2712 15.4655 76.6281 16.1271C76.002 16.7708 75.6893 17.6648 75.6893 18.8092C75.6893 19.9536 76.002 20.8655 76.6281 21.545C77.2712 22.2065 78.0489 22.5374 78.9605 22.5374C79.8721 22.5374 80.641 22.2065 81.2664 21.545C81.9102 20.8834 82.2317 19.9804 82.2317 18.8361Z" fill="#171A1F"/>
<path d="M96.1351 26.5373C94.6694 26.5373 93.3465 26.2244 92.1664 25.5986C91.0046 24.9727 90.0842 24.0787 89.405 22.9165C88.7436 21.7542 88.4125 20.3953 88.4125 18.8397C88.4125 17.3019 88.7524 15.9519 89.4316 14.7896C90.1107 13.6095 91.0406 12.7065 92.2201 12.0807C93.4002 11.4549 94.7231 11.142 96.1888 11.142C97.6544 11.142 98.9773 11.4549 100.157 12.0807C101.337 12.7065 102.266 13.6095 102.945 14.7896C103.625 15.9519 103.964 17.3019 103.964 18.8397C103.964 20.3774 103.616 21.7363 102.919 22.9165C102.24 24.0787 101.301 24.9727 100.103 25.5986C98.9236 26.2244 97.6007 26.5373 96.1351 26.5373ZM96.1351 22.5678C97.0106 22.5678 97.753 22.2459 98.3607 21.6022C98.9861 20.9585 99.2988 20.0377 99.2988 18.8397C99.2988 17.6416 98.995 16.7208 98.3872 16.0771C97.7972 15.4333 97.0643 15.1115 96.1888 15.1115C95.2948 15.1115 94.5532 15.4333 93.9631 16.0771C93.373 16.7029 93.078 17.6238 93.078 18.8397C93.078 20.0377 93.3642 20.9585 93.9366 21.6022C94.526 22.2459 95.2588 22.5678 96.1351 22.5678Z" fill="#171A1F"/>
<path d="M24.9354 16.8128C28.6898 16.8128 31.7334 13.7684 31.7334 10.0128C31.7334 6.25728 28.6898 3.21281 24.9354 3.21281C21.181 3.21281 18.1374 6.25728 18.1374 10.0128C18.1374 13.7684 21.181 16.8128 24.9354 16.8128Z" fill="#057993"/>
<path d="M24.9354 33.1228C28.6898 33.1228 31.7334 30.0784 31.7334 26.3228C31.7334 22.5673 28.6898 19.5228 24.9354 19.5228C21.181 19.5228 18.1374 22.5673 18.1374 26.3228C18.1374 30.0784 21.181 33.1228 24.9354 33.1228Z" fill="#00A7C2"/>
<path d="M2.4299 14.7728C2.4299 8.3884 7.604 3.21281 13.9865 3.21281V21.5728C13.9865 27.9572 8.81241 33.1328 2.4299 33.1328V14.7728Z" fill="#4C92EA"/>
</g>
<defs>
<clipPath id="clip0_2_4808">
<rect width="106" height="36" rx="4" fill="white"/>
</clipPath>
</defs>
</svg>
