<svg preserveAspectRatio="none" width="24" height="24" viewBox="0 0 24 24" fill="none" xmlns="http://www.w3.org/2000/svg">
<path d="M6.85029 17.7746L8.74286 19.2C9.17486 19.524 9.42857 20.0314 9.42857 20.5714V21.4286H2.57143V20.5714C2.57143 20.0314 2.82514 19.524 3.25714 19.2L5.14971 17.7746" stroke="#565D6D" stroke-width="2.05714" stroke-miterlimit="10"/>
<path d="M6 18C5.05286 18 4.28571 17.2329 4.28571 16.2857L4.28571 15.4286C4.28571 14.4814 5.05286 13.7143 6 13.7143C6.94714 13.7143 7.71428 14.4814 7.71428 15.4286V16.2857C7.71428 17.2329 6.94714 18 6 18Z" stroke="#565D6D" stroke-width="2.05714" stroke-miterlimit="10" stroke-linecap="square"/>
<path d="M12.8503 6.63171L14.7429 8.05714C15.1749 8.38114 15.4286 8.88857 15.4286 9.42857V10.2857L8.57143 10.2857L8.57143 9.42857C8.57143 8.88857 8.82514 8.38114 9.25714 8.05714L11.1497 6.63171" stroke="#565D6D" stroke-width="2.05714" stroke-miterlimit="10"/>
<path d="M12 6.85714C11.0529 6.85714 10.2857 6.09 10.2857 5.14286V4.28571C10.2857 3.33857 11.0529 2.57143 12 2.57143C12.9471 2.57143 13.7143 3.33857 13.7143 4.28571V5.14286C13.7143 6.09 12.9471 6.85714 12 6.85714Z" stroke="#565D6D" stroke-width="2.05714" stroke-miterlimit="10" stroke-linecap="square"/>
<path d="M18.8503 17.7746L20.7429 19.2C21.1749 19.524 21.4286 20.0314 21.4286 20.5714V21.4286H14.5714L14.5714 20.5714C14.5714 20.0314 14.8251 19.524 15.2571 19.2L17.1497 17.7746" stroke="#565D6D" stroke-width="2.05714" stroke-miterlimit="10"/>
<path d="M18 18C17.0529 18 16.2857 17.2329 16.2857 16.2857V15.4286C16.2857 14.4814 17.0529 13.7143 18 13.7143C18.9471 13.7143 19.7143 14.4814 19.7143 15.4286V16.2857C19.7143 17.2329 18.9471 18 18 18Z" stroke="#565D6D" stroke-width="2.05714" stroke-miterlimit="10" stroke-linecap="square"/>
</svg>
