<svg preserveAspectRatio="none" width="12" height="12" viewBox="0 0 12 12" fill="none" xmlns="http://www.w3.org/2000/svg">
<path d="M2.14286 6.42857C2.61624 6.42857 3 6.04482 3 5.57143C3 5.09804 2.61624 4.71429 2.14286 4.71429C1.66947 4.71429 1.28571 5.09804 1.28571 5.57143C1.28571 6.04482 1.66947 6.42857 2.14286 6.42857Z" stroke="#9095A1" stroke-width="0.857143" stroke-linecap="round" stroke-linejoin="round"/>
<path d="M9.85714 6.42857C10.3305 6.42857 10.7143 6.04482 10.7143 5.57143C10.7143 5.09804 10.3305 4.71429 9.85714 4.71429C9.38376 4.71429 9 5.09804 9 5.57143C9 6.04482 9.38376 6.42857 9.85714 6.42857Z" stroke="#9095A1" stroke-width="0.857143" stroke-linecap="round" stroke-linejoin="round"/>
<path d="M6 6.42857C6.47339 6.42857 6.85714 6.04482 6.85714 5.57143C6.85714 5.09804 6.47339 4.71429 6 4.71429C5.52661 4.71429 5.14286 5.09804 5.14286 5.57143C5.14286 6.04482 5.52661 6.42857 6 6.42857Z" stroke="#9095A1" stroke-width="0.857143" stroke-linecap="round" stroke-linejoin="round"/>
</svg>
