<svg preserveAspectRatio="none" width="24" height="24" viewBox="0 0 24 24" fill="none" xmlns="http://www.w3.org/2000/svg">
<path d="M12 14.5714C13.4202 14.5714 14.5714 13.4202 14.5714 12C14.5714 10.5798 13.4202 9.42857 12 9.42857C10.5798 9.42857 9.42857 10.5798 9.42857 12C9.42857 13.4202 10.5798 14.5714 12 14.5714Z" stroke="#565D6D" stroke-width="2.05714" stroke-miterlimit="10" stroke-linecap="square"/>
<path d="M18.8571 12C18.8561 11.5062 18.8021 11.014 18.696 10.5317L21.0223 8.77029L19.308 5.80114L16.614 6.93771C15.8845 6.26888 15.0186 5.76619 14.076 5.46429L13.7143 2.57143L10.2857 2.57143L9.924 5.46429C8.98144 5.76619 8.11555 6.26888 7.386 6.93771L4.692 5.80114L2.97771 8.77029L5.304 10.5317C5.08919 11.4988 5.08919 12.5012 5.304 13.4683L2.97771 15.2297L4.692 18.1989L7.386 17.0623C8.11555 17.7311 8.98144 18.2338 9.924 18.5357L10.2857 21.4286H13.7143L14.076 18.5357C15.0186 18.2338 15.8845 17.7311 16.614 17.0623L19.308 18.1989L21.0223 15.2297L18.696 13.4683C18.8021 12.986 18.8561 12.4938 18.8571 12Z" stroke="#565D6D" stroke-width="2.05714" stroke-miterlimit="10" stroke-linecap="square"/>
</svg>
